inDegrees=no
num_controls=7
num_derivatives=13
num_iterations=106
num_multipliers=7
num_parameters=0
num_slacks=7
num_states=26
objective=0.489793
objective_accelerations=0.002515
objective_balance=0.004813
objective_effort=0.017315
objective_height=0.444503
objective_ligament=0.020647
solver_duration=1146.648883
status=Solve_Succeeded
success=true
DataType=double
version=3
OpenSimVersion=4.5
endheader
time	/jointset/ground_pelvis/pelvis_tilt/value	/jointset/ground_pelvis/pelvis_tx/value	/jointset/ground_pelvis/pelvis_ty/value	/jointset/hip_r/hip_flexion_r/value	/jointset/hip_r/hip_adduction_r/value	/jointset/hip_r/hip_rotation_r/value	/jointset/back/lumbar_extension/value	/jointset/patellofemoral_r/patellar_flexion_r/value	/jointset/knee_r/knee_flexion_r/value	/jointset/knee_r/knee_adduction_r/value	/jointset/knee_r/knee_rotation_r/value	/jointset/ankle_r/ankle_angle_r/value	/jointset/subtalar_r/subtalar_angle_r/value	/jointset/ground_pelvis/pelvis_tilt/speed	/jointset/ground_pelvis/pelvis_tx/speed	/jointset/ground_pelvis/pelvis_ty/speed	/jointset/hip_r/hip_flexion_r/speed	/jointset/hip_r/hip_adduction_r/speed	/jointset/hip_r/hip_rotation_r/speed	/jointset/back/lumbar_extension/speed	/jointset/patellofemoral_r/patellar_flexion_r/speed	/jointset/knee_r/knee_flexion_r/speed	/jointset/knee_r/knee_adduction_r/speed	/jointset/knee_r/knee_rotation_r/speed	/jointset/ankle_r/ankle_angle_r/speed	/jointset/subtalar_r/subtalar_angle_r/speed	/forceset/tau_hip_flexion_r	/forceset/tau_hip_adduction_r	/forceset/tau_hip_rotation_r	/forceset/tau_knee_flexion_r	/forceset/tau_ankle_angle_r	/forceset/tau_subtalar_angle_r	/forceset/tau_lumbar_extension	lambda_cid13_p0	lambda_cid14_p0	lambda_cid14_p1	lambda_cid14_p2	lambda_cid14_p3	lambda_cid14_p4	lambda_cid14_p5	/jointset/ground_pelvis/pelvis_tilt/accel	/jointset/ground_pelvis/pelvis_tx/accel	/jointset/ground_pelvis/pelvis_ty/accel	/jointset/hip_r/hip_flexion_r/accel	/jointset/hip_r/hip_adduction_r/accel	/jointset/hip_r/hip_rotation_r/accel	/jointset/back/lumbar_extension/accel	/jointset/patellofemoral_r/patellar_flexion_r/accel	/jointset/knee_r/knee_flexion_r/accel	/jointset/knee_r/knee_adduction_r/accel	/jointset/knee_r/knee_rotation_r/accel	/jointset/ankle_r/ankle_angle_r/accel	/jointset/subtalar_r/subtalar_angle_r/accel	gamma_cid13_p0	gamma_cid14_p0	gamma_cid14_p1	gamma_cid14_p2	gamma_cid14_p3	gamma_cid14_p4	gamma_cid14_p5
0.5	0.005585933533272551	0.1091876656019272	0.9486098940883309	0.162840285486352	-0.1369855120456613	-0.1146553941509353	-0.05875775937136007	0.06308453349344281	0.06308453349344281	-0.02628496439029575	-0.003784647295680204	0.06931416763453169	0.1092320888985468	-0.07029722128915655	0.08403689582569482	-0.0001018027737177421	-0.04081843647748066	0.0538961628472065	0.07016625673765277	-0.03720007159451134	-0.03459815573959835	-0.03459815573959835	-0.1111207879255688	-0.104749958490914	0.08744693953354041	0.08791526399279491	0.09472696798680331	-0.01634627928752367	0.01730843993421451	-0.1948123052520724	0.1324463136052281	-0.02849157386806998	-0.009555453465235408	-34.62375484449186	-3.287356029624604	-15.85403416951792	6.305231182894831	6.756158531980815	-694.6838517621577	48.93115287296272	0.06376725988368631	-0.0693425028989914	-0.00379011769324324	-0.0167830905026629	0.03557540226879798	0.1415452411959003	0.1229014144335744	-0.04262881829420998	-0.04262881829421025	-0.0787126429925324	-0.1659122004525116	-0.1124306054252418	0.01351604206937114	-4.068478673656739e-09	-9.987651042310811e-09	3.541110236107908e-09	-4.980424683369297e-09	3.438998344155658e-09	-3.36898022230484e-09	7.750972878957333e-09
0.51	0.00488619511125663	0.1100244838782437	0.9486086856416995	0.1624313468836336	-0.1364448236898964	-0.1139468679474794	-0.05912355819010989	0.06273649017287686	0.06273649017287683	-0.0274000010623283	-0.004840186826320134	0.07018294186080529	0.1101118355901693	-0.06964428135022459	0.08331843005484971	-0.000139460345482966	-0.04096416062176955	0.05424532459274181	0.07152608334527233	-0.03595517468264232	-0.03500767561324265	-0.03500767561324265	-0.1118940414271455	-0.1063447329166526	0.08629962247629037	0.08803559016418706	0.09368140966875732	-0.0158159936449886	0.01737763908595888	-0.1923479921476987	0.1288722257808617	-0.02825080598681457	-0.008805420771982007	-34.59995982798588	-4.418891407536762	-15.88127652571137	6.23382576751973	7.14845432601167	-694.672349108901	48.82959049679235	0.06698340946733186	-0.07434732838455502	-0.003690324064518787	-0.01269988143061011	0.03515844902475915	0.1312656605918415	0.1259614504849726	-0.03968783633087028	-0.03968783633087112	-0.07775619176753533	-0.1542783922318312	-0.1171266692223993	0.01151847083616189	-4.098408237330084e-09	-1.005182628649401e-08	3.55459241116944e-09	-5.005954530801297e-09	3.446709804201787e-09	-3.388473907758445e-09	7.758594549544484e-09
0.52	0.004193171298343904	0.1108538677540103	0.9486071132699213	0.1620211044784646	-0.1359005293390103	-0.113225130619938	-0.05947677251555675	0.06238443680068816	0.06238443680068816	-0.02852299516698206	-0.005911277766936944	0.07103999403383687	0.1109928310567382	-0.06895429946851768	0.08255001571571335	-0.0001745878031023783	-0.04107919696760282	0.05461736187143075	0.07280848155476788	-0.03468317293391844	-0.03540016606414014	-0.03540016606414015	-0.1127122744498132	-0.1078602404862963	0.08510252888513971	0.08816501898206021	0.09263585135061815	-0.01528570800245354	0.01744683823770325	-0.189883679043325	0.1252981379564954	-0.02801003810555916	-0.008055388078728598	-34.57602191558558	-5.551257708548679	-15.90745572015229	6.160870285440844	7.547018699884418	-694.6705778897675	48.73665124350211	0.0711756484386511	-0.07933221655723674	-0.00328409486408092	-0.01064553081154298	0.0401505088994434	0.126059561571269	0.1283223818045495	-0.03922293374484705	-0.03922293374484705	-0.08770854721063881	-0.1500588292348467	-0.1223859122053735	0.01533657136557228	-4.079882462644634e-09	-9.991914353519474e-09	3.732989206905617e-09	-5.125727044592445e-09	3.407679944534827e-09	-3.383310103283649e-09	8.01895219750932e-09
0.53	0.003507218834443515	0.1116753286713041	0.9486052014211196	0.1616098338179459	-0.1353525378723491	-0.1124906742471109	-0.05981711050233884	0.06202852007124847	0.06202852007124846	-0.02965412473953976	-0.006997359224418936	0.07188480425959386	0.1118749994706643	-0.06823163005726593	0.08173490536858698	-0.000207469082992577	-0.0411724609720629	0.05497104828343488	0.07409754228043734	-0.03337754867803547	-0.03578232988530305	-0.03578232988531032	-0.1134941425256722	-0.1093653734689958	0.08384914558680497	0.08825357227331909	0.09164084549630515	-0.01482609833187675	0.01752299036927938	-0.187523646891279	0.1218865801741355	-0.02777273806308011	-0.007340039975969839	-34.55195793900919	-6.631035068202737	-15.93064291361618	6.092817589440065	7.908595142436132	-694.66463951777	48.65050541782212	0.07349587593286704	-0.08368912252553513	-0.003243889532520613	-0.008297014715855824	0.03149464798004848	0.1325410551247192	0.1327138091502049	-0.03758480149741681	-0.03758480149741634	-0.07050153919424253	-0.1521394813304066	-0.1283720531648644	0.003351194365330875	-4.08050947778373e-09	-9.995774111219945e-09	3.656203152223402e-09	-5.066362485498286e-09	3.404346880946304e-09	-3.398197952145989e-09	7.889227532049904e-09
0.54	0.002828629722348524	0.1124884207493797	0.9486029700105226	0.1611977044814922	-0.1348013061534421	-0.1117428849216151	-0.06014418597422811	0.06166880736455807	0.06166880736455806	-0.03079248811314019	-0.008098771801436496	0.07271676914946404	0.1127576007147748	-0.06748162910743695	0.08087624787205261	-0.0002385001621266312	-0.04125093215462342	0.05526541232060502	0.07547507208850414	-0.03203066995535084	-0.03615936151428212	-0.03615936151428212	-0.1141590346583596	-0.110926464393411	0.08253346170777658	0.08825158501894934	0.09064583964199216	-0.01436648866131867	0.01759914250085552	-0.1851636147392329	0.1184750223917756	-0.02753543802060107	-0.006624691873211077	-34.5277749442573	-7.711670592455659	-15.95277648271422	6.023221791810097	8.276999409231799	-694.6685788673495	48.57303721764846	0.07664195615409571	-0.08804164643884904	-0.002914054713108936	-0.007686966431212883	0.02828603393264348	0.1437533780507311	0.13657327516488	-0.03819649530808085	-0.03819649530808102	-0.06431335857632126	-0.1612504175779313	-0.1348460283441065	-0.002771537760160127	-4.102326813579771e-09	-1.007018978200766e-08	3.297087135376152e-09	-4.808803718105488e-09	3.440508144933927e-09	-3.435270608955799e-09	7.327922434716839e-09
0.55	0.002157686768915197	0.11329270932418	0.9486004403084004	0.1607848897552313	-0.1342472497258931	-0.1109811717231447	-0.06045762523422657	0.06130537140630863	0.06130537140630863	-0.0319372676993745	-0.009215846838981195	0.07353530722927548	0.1136399460887004	-0.06670185755271971	0.07997426890561904	-0.0002669220194566808	-0.04130652701466949	0.05555371953965708	0.07685236710254195	-0.03065372001971053	-0.03652483414778075	-0.03652483414778076	-0.1148124946622135	-0.1124745495699872	0.0811678435096396	0.08822409665254567	0.08971707112913484	-0.01392162718815374	0.01767338907628751	-0.1829133275852009	0.11523247826769	-0.02730804039666886	-0.005961464328214347	-34.50348106410145	-8.738016329820404	-15.97452347204222	5.959068303754243	8.608520985864821	-694.6660628459917	48.5021173639765	0.07940913347547779	-0.09235505705823642	-0.002729205908162934	-0.003674165647779688	0.03027951112167854	0.132436914411558	0.1387751564581801	-0.03527242635175354	-0.0352724263517555	-0.06820437096156191	-0.149489018867081	-0.1383682557293593	-0.001746284958228711	-4.098222679486103e-09	-1.006338997842794e-08	3.187572989674325e-09	-4.728039663863055e-09	3.434646339206198e-09	-3.439641214325585e-09	7.153234740470565e-09
0.5600000000000001	0.001494694406698059	0.1140877623022535	0.9485976417967716	0.1603716833963987	-0.1336900749371075	-0.1102061417042701	-0.06075719113412971	0.06093837076592801	0.06093837076592801	-0.03308905029558259	-0.01034798301852558	0.07433999941906938	0.1145222148191908	-0.06589151086419862	0.07902912852668048	-0.0002922620633912209	-0.04132925866897456	0.05588908456791764	0.07813843616933729	-0.02925599793628642	-0.03687229794051942	-0.03687229794051944	-0.1155596366531165	-0.1139386927933485	0.07976428370426794	0.08823625633190708	0.08878830261623338	-0.01347676571498881	0.01774763565171951	-0.1806630404311689	0.1119899341436043	-0.02708064277273664	-0.005298236783217613	-34.47909330764286	-9.765198222305578	-15.99523054790718	5.893393965707669	8.947513555910126	-694.6725407927576	48.43975767711071	0.08275698291486946	-0.0966739289398432	-0.002297692034007016	-0.001114325283012214	0.03769759577442654	0.1255081885529822	0.140727704721642	-0.03459472715609196	-0.03459472715609196	-0.08304975600448826	-0.1444620269349988	-0.1424343497910425	0.005158071480400629	-4.063012781524786e-09	-9.959131605607288e-09	3.377581089346995e-09	-4.859429265401052e-09	3.378356849820049e-09	-3.404769357967347e-09	7.44248792992842e-09
0.5700000000000001	0.0008399447294594449	0.1148731596838165	0.9485946040245178	0.1599583738420631	-0.1331294933753001	-0.1094184199904462	-0.06104264732952201	0.06056795607252339	0.06056795607252336	-0.03424840990595023	-0.01149456087472065	0.07513043664579241	0.1154045835270395	-0.0650548713040314	0.07804428846028591	-0.0003149175933790756	-0.04133079723287986	0.05621680881373889	0.07941911166451612	-0.02782871337356541	-0.03721024460844647	-0.03721024460844536	-0.1162915774125168	-0.1153844439318366	0.07831400794967415	0.08822203608687773	0.08790250295487212	-0.01310509344505124	0.01782929024876257	-0.1785078414110905	0.1088990061826588	-0.0268581944594712	-0.004663699419580021	-34.45462902124322	-10.7434269684705	-16.01400009483272	5.832532913215682	9.252852295477197	-694.6744600587999	48.38094907289712	0.0846492354113102	-0.1002972750334775	-0.002193941388303071	0.0006033199110823222	0.02874644781856497	0.1313273674001701	0.1447079973384899	-0.03333440819745304	-0.03333440819745269	-0.06516026140285006	-0.1457670119422054	-0.1476991401533289	-0.007029253716867972	-4.049441272059398e-09	-9.929392192733969e-09	3.241278359126139e-09	-4.775881296076319e-09	3.366586226430955e-09	-3.397219203493292e-09	7.252931083583118e-09
0.58	0.0001936678063912309	0.1156485270188068	0.9485913508053826	0.1595451042904596	-0.132565947249268	-0.1086174954941905	-0.06131363484622884	0.06019417395812218	0.06019417395812215	-0.03541446772901088	-0.01265582331322793	0.07590609612459753	0.1162863465961934	-0.06419696003011839	0.07702311921212206	-0.0003353514396470982	-0.04132125812257034	0.05648199741286378	0.08077899265568843	-0.02636226219919757	-0.03754578213983115	-0.03754578213983117	-0.116899279191719	-0.116875609255797	0.07680873412068918	0.08811512859295782	0.08701670329351087	-0.01273342117512303	0.01791094484580566	-0.1763526423910121	0.1058080782217134	-0.02663574614620576	-0.004029162055942428	-34.43009553187109	-11.7225287693198	-16.03173868236562	5.770155281284094	9.566138281880294	-694.6856910155177	48.33069465224055	0.08701132566395976	-0.1039397652937827	-0.001853355289542166	0.001101209559950151	0.02519046643515518	0.1413492877516829	0.148561027051007	-0.03411289984761758	-0.03411289984761757	-0.05820195996486166	-0.153544864030733	-0.1534339646692737	-0.01337937829770775	-4.06404998947243e-09	-9.996700727699037e-09	2.680012687648616e-09	-4.41241462981409e-09	3.412793661084533e-09	-3.425250800310266e-09	6.43980767898257e-09
